<svg width="49" height="48" viewBox="0 0 49 48" fill="none" xmlns="http://www.w3.org/2000/svg">
<path d="M24.1165 0H48.2548V24C48.2548 30.3652 45.714 36.4697 41.1914 40.9706C36.6687 45.4714 30.5347 48 24.1388 48C20.9716 48.0006 17.8355 47.3802 14.9093 46.1743C11.9831 44.9684 9.3244 43.2006 7.08488 40.9719C4.84538 38.7431 3.06903 36.0972 1.8573 33.1851C0.645562 30.273 0.0221823 27.1519 0.0227665 24C0.0227665 17.6348 2.56355 11.5303 7.08618 7.02944C11.6088 2.52857 17.7428 0 24.1388 0H24.1165Z" fill="#FFD702"/>
<path d="M17.5343 32.5326C17.5343 34.2744 18.2297 35.945 19.4673 37.1766C20.7049 38.4082 22.3834 39.1002 24.1337 39.1002C25.8839 39.1002 27.5625 38.4082 28.8001 37.1766C30.0377 35.945 30.733 34.2744 30.733 32.5326V31.1606H17.5343V32.5326Z" fill="black"/>
<path d="M37.2744 20.0038C37.2749 18.8084 36.9191 17.6397 36.2518 16.6456C35.5846 15.6515 34.636 14.8769 33.5262 14.4196C32.4163 13.9624 31.195 13.8431 30.017 14.0769C28.8391 14.3107 27.7572 14.8871 26.9085 15.7331C26.3437 16.293 25.8957 16.9586 25.5904 17.6915C25.285 18.4245 25.1285 19.2104 25.1297 20.0038V26.2571H37.27L37.2744 20.0038Z" fill="black"/>
<path d="M23.0885 23.978C23.0885 22.3758 22.449 20.8393 21.3106 19.7064C20.1723 18.5734 18.6283 17.937 17.0184 17.937C15.4085 17.937 13.8646 18.5734 12.7262 19.7064C11.5877 20.8393 10.9482 22.3758 10.9482 23.978V26.2616H23.0885V23.978Z" fill="black"/>
</svg>
