<svg width="140" height="48" viewBox="0 0 140 48" fill="none" xmlns="http://www.w3.org/2000/svg">
<g clip-path="url(#clip0_202_114)">
<path d="M134.784 8.4043H140V33.8603C140.016 34.2864 139.943 34.7111 139.786 35.1078C139.629 35.5046 139.392 35.8648 139.089 36.166C138.795 36.4687 138.44 36.706 138.048 36.8625C137.656 37.0188 137.234 37.0907 136.811 37.0733H124.605V32.1299H133.668C134.414 32.1299 134.784 31.7183 134.784 30.8952V25.8721H134.041C133.131 28.2324 131.172 29.4126 128.162 29.4126C127.188 29.4216 126.221 29.2536 125.308 28.9169C124.429 28.5918 123.636 28.0711 122.99 27.3946C122.297 26.6582 121.762 25.7894 121.416 24.841C121.036 23.6558 120.853 22.4162 120.879 21.1721V8.4043H126.076V20.0968C126.076 21.5542 126.421 22.6946 127.108 23.5177C127.802 24.3143 128.834 24.7126 130.221 24.7126C131.795 24.7126 132.941 24.2184 133.658 23.23C134.406 22.2122 134.775 20.8402 134.775 19.1098L134.784 8.4043Z" fill="black"/>
<path d="M114.203 0V11.3693H113.456C112.96 10.3073 112.17 9.40783 111.179 8.77594C110.216 8.14162 108.905 7.82593 107.248 7.82888C106.028 7.82654 104.818 8.06416 103.69 8.52812C102.578 9.00334 101.579 9.70431 100.755 10.5861C99.8853 11.5321 99.2099 12.6387 98.767 13.8433C98.274 15.2661 98.0365 16.7641 98.0645 18.2689V19.0079C98.0373 20.5167 98.2613 22.0197 98.7271 23.4556C99.1471 24.6645 99.7928 25.7832 100.631 26.7527C101.432 27.6148 102.404 28.3021 103.485 28.7708C105.43 29.4981 107.55 29.6276 109.569 29.1425C110.215 28.9788 110.83 28.7144 111.392 28.3592C111.873 28.0707 112.294 27.6937 112.633 27.2484C112.952 26.8231 113.229 26.3681 113.46 25.8897H114.208V28.8549H119.406V0H114.203ZM114.203 18.8663C114.234 19.614 114.114 20.3603 113.851 21.0611C113.588 21.762 113.185 22.4031 112.669 22.9467C112.155 23.4575 111.54 23.8567 110.864 24.1187C110.187 24.3808 109.463 24.5001 108.738 24.4691C108.009 24.4979 107.282 24.3816 106.599 24.127C105.916 23.8724 105.292 23.4847 104.762 22.9865C103.769 21.9687 103.272 20.5953 103.272 18.8663V18.3751C103.272 16.6431 103.769 15.283 104.762 14.2947C105.286 13.7856 105.909 13.3881 106.593 13.1264C107.276 12.8647 108.006 12.7442 108.738 12.7723C109.466 12.742 110.194 12.8655 110.872 13.1348C111.549 13.4041 112.161 13.8129 112.669 14.3345C113.187 14.8688 113.59 15.5027 113.854 16.1974C114.118 16.8921 114.237 17.6331 114.203 18.3751V18.8663Z" fill="black"/>
<path d="M91.9639 8.4043H97.171V28.8373H91.9639V25.8721H91.2164C90.3034 28.2324 88.3434 29.4126 85.3372 29.4126C84.3635 29.4211 83.3961 29.2532 82.4826 28.9169C81.6043 28.5907 80.8121 28.0702 80.1657 27.3946C79.4726 26.6582 78.9371 25.7894 78.5914 24.841C78.2126 23.6554 78.0308 22.4161 78.0534 21.1721V8.4043H83.2696V20.0968C83.2696 21.5528 83.6121 22.6946 84.3058 23.5177C84.9995 24.3409 86.027 24.7126 87.4185 24.7126C88.9882 24.7126 90.1354 24.217 90.8515 23.23C91.5676 22.2431 91.9724 20.8402 91.9724 19.1098L91.9639 8.4043Z" fill="black"/>
<path d="M76.3859 13.8433C75.9697 12.6363 75.3083 11.5275 74.4426 10.5861C73.6579 9.69403 72.6803 8.9904 71.5832 8.52812C70.4998 8.06108 69.3308 7.82298 68.1501 7.82888C66.7542 7.7749 65.37 8.10245 64.1479 8.77594C63.1006 9.37671 62.2627 10.2816 61.7465 11.3693H61.0038V0H55.7742V28.8372H60.9905V25.872H61.7331C61.9938 26.3471 62.2912 26.8013 62.6226 27.2307C62.9957 27.6582 63.4268 28.032 63.9033 28.3415C64.4707 28.6871 65.0846 28.9509 65.7265 29.1249C67.7044 29.6097 69.784 29.4799 71.6855 28.7531C72.7751 28.2983 73.7501 27.6092 74.5405 26.7351C75.3784 25.7655 76.0242 24.6467 76.4438 23.438C76.9385 22.0078 77.1778 20.5025 77.1508 18.9903V18.2511C77.1709 16.7475 76.9116 15.2531 76.3859 13.8433ZM71.9167 18.8663C71.9167 20.5953 71.4053 21.9687 70.3826 22.9865C69.8623 23.4857 69.2456 23.8744 68.5699 24.1293C67.8941 24.3842 67.1733 24.4998 66.4514 24.4691C65.7202 24.4977 64.9909 24.3773 64.308 24.1155C63.6251 23.8538 63.0032 23.4561 62.4802 22.9467C61.4601 21.8367 60.9243 20.3691 60.9905 18.8663V18.3751C60.9573 17.6379 61.0723 16.9015 61.3289 16.2092C61.5855 15.5169 61.9784 14.8825 62.4847 14.3433C63.0016 13.8231 63.6216 13.4157 64.3052 13.1467C64.9888 12.8777 65.7212 12.7533 66.4559 12.7811C67.1813 12.7502 67.9053 12.8695 68.582 13.1315C69.2587 13.3935 69.8734 13.7927 70.387 14.3035C71.4097 15.2919 71.9212 16.6521 71.9212 18.3839L71.9167 18.8663Z" fill="black"/>
<path d="M24.1165 0H48.2548V24C48.2548 30.3652 45.714 36.4697 41.1914 40.9706C36.6687 45.4714 30.5347 48 24.1388 48C20.9716 48.0006 17.8355 47.3802 14.9093 46.1743C11.9831 44.9684 9.3244 43.2006 7.08488 40.9719C4.84538 38.7431 3.06903 36.0972 1.8573 33.1851C0.645562 30.273 0.0221823 27.1519 0.0227665 24C0.0227665 17.6348 2.56355 11.5303 7.08618 7.02944C11.6088 2.52857 17.7428 0 24.1388 0H24.1165Z" fill="#FFD702"/>
<path d="M17.5343 32.5326C17.5343 34.2744 18.2297 35.945 19.4673 37.1766C20.7049 38.4082 22.3834 39.1002 24.1337 39.1002C25.8839 39.1002 27.5625 38.4082 28.8001 37.1766C30.0377 35.945 30.733 34.2744 30.733 32.5326V31.1606H17.5343V32.5326Z" fill="black"/>
<path d="M37.2744 20.0038C37.2749 18.8084 36.9191 17.6397 36.2518 16.6456C35.5846 15.6515 34.636 14.8769 33.5262 14.4196C32.4163 13.9624 31.195 13.8431 30.017 14.0769C28.8391 14.3107 27.7572 14.8871 26.9085 15.7331C26.3437 16.293 25.8957 16.9586 25.5904 17.6915C25.285 18.4245 25.1285 19.2104 25.1297 20.0038V26.2571H37.27L37.2744 20.0038Z" fill="black"/>
<path d="M23.0885 23.978C23.0885 22.3758 22.449 20.8393 21.3106 19.7064C20.1723 18.5734 18.6283 17.937 17.0184 17.937C15.4085 17.937 13.8646 18.5734 12.7262 19.7064C11.5877 20.8393 10.9482 22.3758 10.9482 23.978V26.2616H23.0885V23.978Z" fill="black"/>
<path d="M61.5152 35.4224C63.1872 35.4224 64.4191 35.9388 65.2106 36.9714C65.9862 38.1777 66.3984 39.5798 66.3984 41.012C66.3984 42.4441 65.9862 43.8462 65.2106 45.0525C64.4191 46.0837 63.1783 46.6015 61.4974 46.6015C60.7528 46.6031 60.019 46.4254 59.3584 46.0837C58.6979 45.741 58.1558 45.2092 57.802 44.5568V46.3846H56.29V31.3376H57.802V37.4671C58.1506 36.8164 58.6948 36.2904 59.3584 35.9624C60.021 35.6067 60.7623 35.4212 61.5152 35.4224ZM61.3462 45.203C63.718 45.203 64.9038 43.806 64.9038 41.012C64.9038 38.2179 63.718 36.821 61.3462 36.821C60.8629 36.7965 60.3801 36.8783 59.9321 37.0603C59.484 37.2423 59.0817 37.5202 58.7536 37.8742C58.1177 38.5602 57.802 39.6091 57.802 41.012C57.802 42.4148 58.1177 43.4682 58.7536 44.1718C59.0857 44.5192 59.4894 44.7912 59.9368 44.9691C60.3842 45.1471 60.8649 45.2269 61.3462 45.203Z" fill="black" stroke="black" stroke-width="1.5" stroke-miterlimit="10"/>
<path d="M73.1573 46.6014C71.5297 46.6014 70.2623 46.0998 69.3551 45.0967C68.4479 44.0936 67.9943 42.732 67.9943 41.0119C67.9943 39.3065 68.4479 37.9523 69.3551 36.9492C70.2623 35.9461 71.5297 35.4371 73.1573 35.4224C74.7849 35.4224 76.0523 35.9312 76.9595 36.9492C77.8666 37.967 78.3202 39.3213 78.3202 41.0119C78.3202 42.7172 77.8666 44.0788 76.9595 45.0967C76.0523 46.1145 74.7849 46.6161 73.1573 46.6014ZM73.1573 45.2029C74.4262 45.2029 75.3481 44.8592 75.9233 44.1717C76.4984 43.4843 76.7949 42.4311 76.8127 41.0119C76.8127 39.5898 76.5163 38.5365 75.9233 37.852C75.3304 37.1675 74.4084 36.8238 73.1573 36.8208C71.8914 36.8208 70.9634 37.1645 70.3735 37.852C69.7835 38.5395 69.4944 39.5927 69.5063 41.0119C69.5063 42.434 69.7954 43.4872 70.3735 44.1717C70.9515 44.8562 71.8795 45.2 73.1573 45.2029Z" fill="black" stroke="black" stroke-width="1.5" stroke-miterlimit="10"/>
<path d="M109.529 31.3376V46.3846H108.017V44.5568C107.665 45.2102 107.123 45.7424 106.461 46.0837C105.802 46.4249 105.07 46.6026 104.326 46.6015C102.643 46.6015 101.403 46.0852 100.609 45.0525C99.8336 43.8462 99.4212 42.4441 99.4212 41.012C99.4212 39.5798 99.8336 38.1777 100.609 36.9714C101.401 35.9388 102.632 35.4224 104.304 35.4224C105.057 35.4212 105.798 35.6067 106.461 35.9624C107.125 36.2904 107.668 36.8164 108.017 37.4671V31.3376H109.529ZM104.477 45.203C104.958 45.2271 105.439 45.1474 105.885 44.9695C106.332 44.7914 106.734 44.5194 107.066 44.1718C107.7 43.4667 108.017 42.4134 108.017 41.012C108.017 39.6091 107.702 38.5602 107.066 37.8742C106.739 37.5203 106.337 37.2424 105.89 37.0604C105.442 36.8784 104.96 36.7966 104.477 36.821C102.106 36.821 100.92 38.2179 100.92 41.012C100.92 43.806 102.106 45.203 104.477 45.203Z" fill="black" stroke="black" stroke-width="1.5" stroke-miterlimit="10"/>
<path d="M89.8689 35.6392V46.3845H88.357V44.5568C88.0057 45.209 87.4643 45.7408 86.8051 46.0836C86.1441 46.4243 85.411 46.602 84.6663 46.6014C82.9794 46.6014 81.7402 46.0851 80.9486 45.0525C80.1731 43.8461 79.7609 42.444 79.7609 41.0119C79.7609 39.5798 80.1731 38.1777 80.9486 36.9713C81.7402 35.9386 82.972 35.4224 84.6441 35.4224C85.3983 35.4216 86.1407 35.6071 86.8051 35.9623C87.4669 36.291 88.0099 36.817 88.357 37.467V35.6392H89.8689ZM84.8175 45.2029C85.299 45.2265 85.7793 45.1466 86.2264 44.9686C86.6744 44.7907 87.0774 44.5189 87.41 44.1717C88.0413 43.4667 88.357 42.4133 88.357 41.0119C88.357 39.609 88.0413 38.5601 87.41 37.8741C87.0817 37.5206 86.6795 37.243 86.2315 37.0611C85.7835 36.8791 85.3007 36.7971 84.8175 36.8208C82.4458 36.8208 81.2599 38.2179 81.2599 41.0119C81.2599 43.8059 82.4458 45.2029 84.8175 45.2029Z" fill="black" stroke="black" stroke-width="1.5" stroke-miterlimit="10"/>
<path d="M98.5048 35.5862C98.1883 35.5407 97.8685 35.5185 97.5486 35.5198C96.7943 35.5185 96.0519 35.704 95.3875 36.0597C94.7265 36.3902 94.1852 36.9157 93.8356 37.5645V35.7367H92.3236V46.4865H93.8356V44.6587V40.7331C93.8119 39.7314 94.1445 38.7536 94.774 37.9716C95.1058 37.6144 95.5122 37.3345 95.9653 37.1517C96.4175 36.9688 96.9054 36.8877 97.3933 36.9139C97.692 36.9143 97.9898 36.9425 98.2825 36.998" fill="black"/>
<path d="M98.5048 35.5862C98.1883 35.5407 97.8685 35.5185 97.5486 35.5198C96.7943 35.5185 96.0519 35.704 95.3875 36.0597C94.7265 36.3902 94.1852 36.9157 93.8356 37.5645V35.7367H92.3236V46.4865H93.8356V44.6587V40.7331C93.8119 39.7314 94.1445 38.7536 94.774 37.9716C95.1058 37.6144 95.5122 37.3345 95.9653 37.1517C96.4175 36.9688 96.9054 36.8877 97.3933 36.9139C97.692 36.9143 97.9898 36.9425 98.2825 36.998" stroke="black" stroke-width="1.5" stroke-miterlimit="10"/>
</g>
<defs>
<clipPath id="clip0_202_114">
<rect width="140" height="48" fill="white"/>
</clipPath>
</defs>
</svg>
